<svg version="1.1" id="Layer_1" xmlns="http://www.w3.org/2000/svg" xmlns:xlink="http://www.w3.org/1999/xlink" x="0px" y="0px"
	 width="100%" viewBox="0 0 1668 1250" enable-background="new 0 0 1668 1250" xml:space="preserve">
<path fill="#FFFFFF" opacity="1.000000" stroke="none" 
	d="
M1.000000,590.000000 
	C1.000000,393.680267 1.000000,197.360550 1.000000,1.020415 
	C556.947815,1.020415 1112.895630,1.020415 1668.921753,1.020415 
	C1668.921753,417.585602 1668.921753,834.171204 1668.921753,1250.878418 
	C1113.119629,1250.878418 557.239197,1250.878418 1.000000,1250.878418 
	C1.000000,1045.634033 1.000000,840.267944 1.375656,634.583496 
	C2.520541,638.537292 3.113001,642.850159 4.089183,647.074463 
	C8.635678,666.749023 14.892171,685.796326 25.059301,703.389221 
	C39.742153,728.796021 59.126305,749.798706 83.518776,766.174011 
	C110.464203,784.263123 140.280579,794.383850 172.460083,796.804077 
	C190.363174,798.150574 208.339157,797.030640 226.050644,793.060669 
	C247.181076,788.324219 267.010681,780.468872 285.252899,768.886047 
	C301.141266,758.797791 315.793976,747.064697 327.326324,732.029602 
	C334.846008,722.226013 342.398773,712.295715 348.547943,701.622131 
	C365.237427,672.652710 372.226318,640.983459 371.864136,607.727783 
	C371.768402,598.937317 370.207916,590.136841 368.972992,581.389893 
	C366.036499,560.590027 359.079834,541.143066 348.984283,522.742371 
	C336.566223,500.108582 320.133087,480.968903 299.718933,465.203613 
	C274.488251,445.718628 246.209183,433.562225 214.592148,428.888641 
	C198.454498,426.503204 182.414749,426.557953 166.237610,427.925812 
	C150.046005,429.294952 134.516159,433.170624 119.428864,439.016022 
	C99.373840,446.786102 80.879715,457.388336 64.935371,471.784424 
	C50.756458,484.586517 37.826370,498.591370 28.035093,515.322449 
	C16.172657,535.592590 7.551036,556.917297 3.925353,580.201355 
	C3.405714,583.538513 1.997168,586.737244 1.000000,590.000000 
M1214.489014,561.986267 
	C1218.269043,576.866821 1221.758301,591.828613 1225.887329,606.611633 
	C1235.453735,640.860901 1248.960327,673.488037 1267.038330,704.169495 
	C1271.259033,711.332886 1276.513672,717.514343 1285.237061,718.518982 
	C1293.922729,719.519287 1302.721069,719.721802 1311.473999,719.793518 
	C1313.082031,719.806641 1315.138672,717.829590 1316.262329,716.253479 
	C1331.451538,694.948975 1341.151489,670.963318 1349.976196,646.566833 
	C1351.078979,643.518372 1351.991577,640.401123 1352.650269,638.370239 
	C1361.716309,658.836243 1370.753174,679.717957 1380.247925,700.389404 
	C1383.263550,706.954895 1387.375244,712.994141 1394.515625,716.183044 
	C1405.356567,721.024658 1416.791870,720.045166 1428.124634,719.711121 
	C1429.587524,719.667969 1431.308716,717.623169 1432.362427,716.121216 
	C1443.632080,700.057007 1452.057861,682.458740 1459.806763,664.518921 
	C1473.513184,632.786377 1485.542114,600.493225 1492.756958,566.561462 
	C1495.568604,553.338928 1487.502563,540.786377 1474.045898,539.106628 
	C1466.195923,538.126709 1458.200928,538.238525 1450.266724,538.019287 
	C1434.571411,537.585632 1436.998535,539.110107 1434.135742,550.747864 
	C1434.096558,550.907715 1434.087524,551.074890 1434.062256,551.238403 
	C1430.119385,576.853088 1423.545776,601.804016 1414.987061,626.239929 
	C1413.878052,629.406067 1412.163086,632.360107 1410.562500,635.766357 
	C1409.151489,634.499878 1408.578003,634.235535 1408.438721,633.824219 
	C1401.575562,613.548035 1394.108643,593.445557 1388.140381,572.907715 
	C1384.009399,558.691650 1367.699341,544.611328 1353.448120,545.906982 
	C1347.333862,546.462952 1341.099976,546.355225 1334.970825,545.887695 
	C1330.059692,545.513062 1328.007935,547.790710 1327.074707,552.016846 
	C1321.564697,576.972107 1313.820679,601.253296 1304.870483,625.160522 
	C1303.596802,628.562622 1301.738037,631.745789 1299.730957,635.897522 
	C1298.371582,633.740662 1297.481201,632.739441 1297.041260,631.568909 
	C1288.860229,609.799988 1281.900757,587.680664 1277.976807,564.694336 
	C1275.736206,551.569824 1265.124634,540.460999 1252.107544,539.154358 
	C1240.923218,538.031799 1229.596558,538.142029 1218.331543,538.107239 
	C1214.267822,538.094666 1211.410278,540.350220 1212.006348,545.099731 
	C1212.680420,550.471558 1213.403687,555.837219 1214.489014,561.986267 
M971.006592,767.497925 
	C983.446167,762.602051 994.014343,755.191101 1002.682495,744.900085 
	C1013.560486,731.985352 1019.758301,717.290222 1019.911682,700.407837 
	C1020.026184,687.811035 1019.177795,675.208557 1019.039856,662.605530 
	C1018.872131,647.280518 1019.227051,631.947510 1018.911987,616.627197 
	C1018.732727,607.914734 1018.319336,599.110535 1016.873657,590.539612 
	C1013.101318,568.175415 1001.764038,550.815918 980.773132,541.031128 
	C963.291931,532.882385 944.765198,531.873962 925.742188,533.802490 
	C909.110352,535.488586 893.582947,539.942993 879.472412,548.894348 
	C864.025574,558.693542 852.622192,571.915771 845.883057,589.095459 
	C839.827881,604.531311 838.922729,620.343567 840.903809,636.659241 
	C842.852356,652.707642 848.752869,666.856018 860.019043,678.353577 
	C869.525757,688.055664 881.361511,694.434753 894.704346,696.802307 
	C905.341553,698.689941 916.368286,700.294922 927.045837,699.537964 
	C939.222656,698.674683 949.715027,692.606018 957.017883,680.594543 
	C957.017883,687.173218 957.395142,692.523315 956.949280,697.803894 
	C955.436401,715.723206 941.694946,724.624023 926.392151,725.727478 
	C903.892029,727.349976 881.570862,725.566528 861.171509,714.091309 
	C857.523010,712.038940 855.017029,713.549622 855.067139,717.752319 
	C855.135803,723.523682 855.715576,729.287048 855.973267,735.058411 
	C856.505554,746.983337 863.248535,755.174438 872.157471,762.028442 
	C885.238220,772.091858 900.873108,774.630737 916.564209,775.823364 
	C934.943298,777.220398 953.057373,774.911743 971.006592,767.497925 
M525.445068,718.019226 
	C531.076721,719.021179 536.676025,720.289612 542.345764,720.977234 
	C562.693420,723.444702 582.816650,722.445129 602.411987,715.981445 
	C625.306213,708.429749 637.897034,692.224854 639.799072,668.482727 
	C640.879028,655.001526 640.810730,641.299866 639.763733,627.813660 
	C638.760864,614.895691 633.561462,607.037720 621.125916,603.424316 
	C614.030396,601.362671 606.045837,602.244324 598.455139,602.038391 
	C591.707642,601.855347 584.951233,602.000000 578.348938,602.000000 
	C578.161499,603.058777 577.989807,603.413513 578.062012,603.708496 
	C582.350159,621.230469 582.201599,639.078857 581.998840,656.931152 
	C581.906677,665.043640 579.552551,668.795044 571.680420,669.935303 
	C565.287415,670.861328 558.550964,670.744873 552.129700,669.880554 
	C536.986938,667.842163 524.314941,661.051697 515.987305,647.784424 
	C502.262451,625.918518 500.608307,602.324402 507.587189,578.061829 
	C512.980835,559.310486 525.758667,547.057922 544.356506,541.422119 
	C556.383423,537.777527 568.766235,538.678284 581.187134,539.869690 
	C597.495789,541.433899 612.702515,545.714600 626.431030,554.844482 
	C627.568604,555.600952 629.185486,555.636658 630.998047,556.118408 
	C630.998047,547.122192 631.425232,538.941589 630.874084,530.827454 
	C630.356506,523.207764 627.461182,516.098694 622.585754,510.169250 
	C610.502075,495.472961 593.944946,489.360596 575.734070,488.211823 
	C561.271484,487.299500 546.738647,487.604126 532.309204,490.847443 
	C506.826050,496.575348 485.089508,508.056427 468.081299,528.293945 
	C449.438354,550.476624 442.132111,576.581116 441.129700,604.755066 
	C440.523560,621.791931 443.441010,638.525757 450.198914,654.278992 
	C458.069946,672.627136 469.831879,688.048523 486.219818,699.775269 
	C497.939270,708.161377 510.646606,714.367920 525.445068,718.019226 
M1131.053467,583.071777 
	C1136.209351,584.557251 1140.164185,587.289978 1142.246826,592.570496 
	C1145.490601,600.795532 1142.946167,605.194153 1134.412476,604.957092 
	C1119.330078,604.538147 1104.406494,605.806458 1089.704590,609.073608 
	C1077.746582,611.731079 1066.364746,616.120850 1057.171875,624.469177 
	C1047.985718,632.811523 1043.348145,643.375793 1041.712158,655.926331 
	C1038.948730,677.127136 1045.668335,693.808411 1062.759399,706.311401 
	C1077.895508,717.384094 1095.489258,721.047607 1113.740601,721.885315 
	C1121.478638,722.240479 1129.271973,721.193665 1137.045166,721.036011 
	C1147.824097,720.817444 1158.257324,718.860535 1168.280884,714.990662 
	C1181.309814,709.960327 1190.520752,701.075439 1196.159790,688.075134 
	C1202.902832,672.530579 1203.219604,656.008301 1203.744751,639.705200 
	C1204.254639,623.873047 1203.303833,607.913208 1201.810913,592.121338 
	C1200.486450,578.112000 1194.602783,565.619263 1184.759277,555.269653 
	C1170.147949,539.906921 1151.210571,534.443176 1131.011230,533.233215 
	C1120.220459,532.586792 1109.210571,533.752014 1098.436890,535.155029 
	C1086.061890,536.766541 1074.873657,541.764771 1065.353394,550.131165 
	C1049.573120,563.998718 1050.208008,582.256714 1051.380859,601.326538 
	C1053.306152,600.847717 1054.995239,600.761169 1056.341797,600.037292 
	C1063.677856,596.093262 1070.663086,591.380615 1078.264771,588.070923 
	C1094.930298,580.814880 1112.514771,580.786194 1131.053467,583.071777 
M806.095276,700.624023 
	C808.093872,697.629089 810.338806,694.767639 812.046936,691.615234 
	C818.286621,680.099548 820.547119,667.263123 820.691833,654.626648 
	C820.943848,632.615845 823.205566,610.428772 818.925415,588.560974 
	C815.634644,571.748352 807.683960,557.767822 793.302673,547.524109 
	C780.216125,538.202698 765.393066,534.462585 749.991089,533.202393 
	C733.332581,531.839355 716.515808,532.753845 700.836975,539.245422 
	C687.630432,544.713379 676.612000,553.078674 671.257568,567.291199 
	C667.108643,578.303833 669.937866,589.555725 668.818848,601.838501 
	C671.632751,600.659607 673.586243,600.032043 675.354858,599.066101 
	C681.967773,595.454102 688.268921,591.152405 695.146301,588.167603 
	C710.684387,581.423889 727.337158,580.752563 743.792358,582.272705 
	C755.216492,583.328064 758.174377,585.934265 760.806396,596.676331 
	C762.108704,601.991455 759.756226,604.830078 754.280396,605.013916 
	C746.010437,605.291565 737.745972,605.746521 729.474976,605.973938 
	C717.547241,606.301880 706.093262,608.890076 694.935608,612.949829 
	C683.693298,617.040344 673.972839,623.220215 667.135803,633.346741 
	C659.974426,643.953796 658.356934,655.728455 658.897278,668.253479 
	C659.477905,681.713562 664.721924,692.992188 674.452515,701.733398 
	C689.902344,715.612244 709.102539,721.064758 729.258362,721.718750 
	C743.348083,722.175903 757.608582,720.647583 771.635742,718.808350 
	C784.861694,717.074097 796.865967,711.803162 806.095276,700.624023 
M1664.023315,589.420410 
	C1663.676880,587.489441 1663.515747,585.502869 1662.955200,583.636169 
	C1657.593140,565.780945 1647.802612,551.616699 1630.699463,542.786804 
	C1619.188354,536.843872 1606.938965,534.092407 1594.391479,533.188965 
	C1578.231812,532.025391 1562.061523,533.075195 1546.676025,539.011414 
	C1533.642700,544.040100 1523.007690,552.117188 1517.127441,565.116516 
	C1511.953125,576.555725 1514.482056,588.782776 1513.974854,601.889648 
	C1516.766724,600.647705 1518.679443,599.933533 1520.463379,598.978882 
	C1527.241089,595.351807 1533.773560,591.191040 1540.770752,588.064941 
	C1555.979492,581.270203 1572.251831,581.450623 1588.448486,582.065308 
	C1598.233765,582.436646 1603.894409,587.162537 1605.811157,595.652893 
	C1607.244141,602.001038 1604.855347,604.857300 1598.302490,605.029236 
	C1590.365112,605.237549 1582.436157,605.771667 1574.498657,605.967957 
	C1562.395508,606.267273 1550.753540,608.901489 1539.486816,613.065674 
	C1528.307251,617.197693 1518.504395,623.523438 1511.870361,633.725708 
	C1505.665771,643.267456 1503.859009,653.951416 1503.906738,665.256470 
	C1503.983276,683.367981 1511.632935,697.093567 1526.439331,707.134399 
	C1540.427368,716.620239 1556.294922,720.726379 1572.765259,721.818115 
	C1589.076904,722.899292 1605.435425,721.810486 1621.450439,717.959717 
	C1634.572632,714.804504 1646.050659,709.002808 1653.880981,697.408997 
	C1662.885010,684.077637 1665.040283,668.726624 1665.802856,653.356873 
	C1666.660278,636.076721 1666.107056,618.720032 1665.914551,601.399475 
	C1665.873291,597.688232 1664.747314,593.989014 1664.023315,589.420410 
z"/>
<path fill="#EF4723" opacity="1.000000" stroke="none" 
	d="
M1.000000,590.375000 
	C1.997168,586.737244 3.405714,583.538513 3.925353,580.201355 
	C7.551036,556.917297 16.172657,535.592590 28.035093,515.322449 
	C37.826370,498.591370 50.756458,484.586517 64.935371,471.784424 
	C80.879715,457.388336 99.373840,446.786102 119.428864,439.016022 
	C134.516159,433.170624 150.046005,429.294952 166.237610,427.925812 
	C182.414749,426.557953 198.454498,426.503204 214.592148,428.888641 
	C246.209183,433.562225 274.488251,445.718628 299.718933,465.203613 
	C320.133087,480.968903 336.566223,500.108582 348.984283,522.742371 
	C359.079834,541.143066 366.036499,560.590027 368.972992,581.389893 
	C370.207916,590.136841 371.768402,598.937317 371.864136,607.727783 
	C372.226318,640.983459 365.237427,672.652710 348.547943,701.622131 
	C342.398773,712.295715 334.846008,722.226013 327.326324,732.029602 
	C315.793976,747.064697 301.141266,758.797791 285.252899,768.886047 
	C267.010681,780.468872 247.181076,788.324219 226.050644,793.060669 
	C208.339157,797.030640 190.363174,798.150574 172.460083,796.804077 
	C140.280579,794.383850 110.464203,784.263123 83.518776,766.174011 
	C59.126305,749.798706 39.742153,728.796021 25.059301,703.389221 
	C14.892171,685.796326 8.635678,666.749023 4.089183,647.074463 
	C3.113001,642.850159 2.520541,638.537292 1.375656,634.132568 
	C1.000000,633.250000 1.000000,632.500000 1.352796,631.238770 
	C1.470394,629.151733 1.235196,627.575867 0.999999,626.000000 
	C1.000000,616.979126 1.000000,607.958191 1.352796,598.332458 
	C1.470395,596.151733 1.235197,594.575867 1.000000,593.000000 
	C1.000000,592.250000 1.000000,591.500000 1.000000,590.375000 
M205.473785,453.000000 
	C202.879562,452.666809 200.293808,452.148346 197.689804,452.029480 
	C174.354355,450.964203 151.549484,453.699158 129.641678,462.134277 
	C112.026550,468.916565 95.835327,478.339874 81.796715,490.912079 
	C69.654930,501.785583 58.990582,514.003357 50.254574,528.022339 
	C34.559555,553.208557 27.022259,580.712524 26.266287,609.980835 
	C25.969448,621.473267 28.116993,633.136414 30.094212,644.558655 
	C34.970879,672.730896 48.208523,697.006165 66.930603,718.226624 
	C77.052223,729.698914 88.810570,739.403748 101.918236,747.648987 
	C124.925743,762.121521 149.990738,769.787476 176.800613,771.878845 
	C191.941925,773.060059 207.036926,771.394287 221.878708,767.997375 
	C251.365112,761.248718 276.829895,747.098572 298.440186,726.021729 
	C312.859039,711.958862 324.132599,695.706909 332.389801,677.267883 
	C342.477509,654.741211 347.106750,631.339172 346.138428,606.621643 
	C345.615692,593.277466 343.703888,580.343872 340.085297,567.510193 
	C333.371674,543.699646 321.487640,522.827148 304.985870,504.580658 
	C294.135071,492.582611 281.772614,482.320587 267.705536,474.171722 
	C248.631210,463.122253 228.319855,455.740387 205.473785,453.000000 
z"/>
<path fill="#FFFFFF" opacity="1.000000" stroke="none" 
	d="
M1.000000,593.416626 
	C1.235197,594.575867 1.470395,596.151733 1.352796,597.863770 
	C1.000000,596.611084 1.000000,595.222229 1.000000,593.416626 
z"/>
<path fill="#FFFFFF" opacity="1.000000" stroke="none" 
	d="
M0.999999,626.416626 
	C1.235196,627.575867 1.470394,629.151733 1.352796,630.863770 
	C1.000000,629.611084 1.000000,628.222229 0.999999,626.416626 
z"/>
<path fill="#FFCD34" opacity="1.000000" stroke="none" 
	d="
M1214.297241,561.595947 
	C1213.403687,555.837219 1212.680420,550.471558 1212.006348,545.099731 
	C1211.410278,540.350220 1214.267822,538.094666 1218.331543,538.107239 
	C1229.596558,538.142029 1240.923218,538.031799 1252.107544,539.154358 
	C1265.124634,540.460999 1275.736206,551.569824 1277.976807,564.694336 
	C1281.900757,587.680664 1288.860229,609.799988 1297.041260,631.568909 
	C1297.481201,632.739441 1298.371582,633.740662 1299.730957,635.897522 
	C1301.738037,631.745789 1303.596802,628.562622 1304.870483,625.160522 
	C1313.820679,601.253296 1321.564697,576.972107 1327.074707,552.016846 
	C1328.007935,547.790710 1330.059692,545.513062 1334.970825,545.887695 
	C1341.099976,546.355225 1347.333862,546.462952 1353.448120,545.906982 
	C1367.699341,544.611328 1384.009399,558.691650 1388.140381,572.907715 
	C1394.108643,593.445557 1401.575562,613.548035 1408.438721,633.824219 
	C1408.578003,634.235535 1409.151489,634.499878 1410.562500,635.766357 
	C1412.163086,632.360107 1413.878052,629.406067 1414.987061,626.239929 
	C1423.545776,601.804016 1430.119385,576.853088 1434.062256,551.238403 
	C1434.087524,551.074890 1434.096558,550.907715 1434.135742,550.747864 
	C1436.998535,539.110107 1434.571411,537.585632 1450.266724,538.019287 
	C1458.200928,538.238525 1466.195923,538.126709 1474.045898,539.106628 
	C1487.502563,540.786377 1495.568604,553.338928 1492.756958,566.561462 
	C1485.542114,600.493225 1473.513184,632.786377 1459.806763,664.518921 
	C1452.057861,682.458740 1443.632080,700.057007 1432.362427,716.121216 
	C1431.308716,717.623169 1429.587524,719.667969 1428.124634,719.711121 
	C1416.791870,720.045166 1405.356567,721.024658 1394.515625,716.183044 
	C1387.375244,712.994141 1383.263550,706.954895 1380.247925,700.389404 
	C1370.753174,679.717957 1361.716309,658.836243 1352.650269,638.370239 
	C1351.991577,640.401123 1351.078979,643.518372 1349.976196,646.566833 
	C1341.151489,670.963318 1331.451538,694.948975 1316.262329,716.253479 
	C1315.138672,717.829590 1313.082031,719.806641 1311.473999,719.793518 
	C1302.721069,719.721802 1293.922729,719.519287 1285.237061,718.518982 
	C1276.513672,717.514343 1271.259033,711.332886 1267.038330,704.169495 
	C1248.960327,673.488037 1235.453735,640.860901 1225.887329,606.611633 
	C1221.758301,591.828613 1218.269043,576.866821 1214.297241,561.595947 
z"/>
<path fill="#FFCD34" opacity="1.000000" stroke="none" 
	d="
M970.673706,767.706299 
	C953.057373,774.911743 934.943298,777.220398 916.564209,775.823364 
	C900.873108,774.630737 885.238220,772.091858 872.157471,762.028442 
	C863.248535,755.174438 856.505554,746.983337 855.973267,735.058411 
	C855.715576,729.287048 855.135803,723.523682 855.067139,717.752319 
	C855.017029,713.549622 857.523010,712.038940 861.171509,714.091309 
	C881.570862,725.566528 903.892029,727.349976 926.392151,725.727478 
	C941.694946,724.624023 955.436401,715.723206 956.949280,697.803894 
	C957.395142,692.523315 957.017883,687.173218 957.017883,680.594543 
	C949.715027,692.606018 939.222656,698.674683 927.045837,699.537964 
	C916.368286,700.294922 905.341553,698.689941 894.704346,696.802307 
	C881.361511,694.434753 869.525757,688.055664 860.019043,678.353577 
	C848.752869,666.856018 842.852356,652.707642 840.903809,636.659241 
	C838.922729,620.343567 839.827881,604.531311 845.883057,589.095459 
	C852.622192,571.915771 864.025574,558.693542 879.472412,548.894348 
	C893.582947,539.942993 909.110352,535.488586 925.742188,533.802490 
	C944.765198,531.873962 963.291931,532.882385 980.773132,541.031128 
	C1001.764038,550.815918 1013.101318,568.175415 1016.873657,590.539612 
	C1018.319336,599.110535 1018.732727,607.914734 1018.911987,616.627197 
	C1019.227051,631.947510 1018.872131,647.280518 1019.039856,662.605530 
	C1019.177795,675.208557 1020.026184,687.811035 1019.911682,700.407837 
	C1019.758301,717.290222 1013.560486,731.985352 1002.682495,744.900085 
	C994.014343,755.191101 983.446167,762.602051 970.673706,767.706299 
M920.226624,649.664307 
	C921.499084,649.954468 922.758179,650.340393 924.045959,650.520081 
	C938.793030,652.577637 949.181335,650.358459 955.560181,634.450623 
	C960.080139,623.178406 959.238464,611.072510 955.639587,599.558044 
	C953.216125,591.804016 947.715332,586.098083 939.500854,584.406555 
	C934.992310,583.478210 930.139587,583.723572 925.491943,584.083801 
	C918.279785,584.642639 912.063049,587.841431 908.108643,593.933228 
	C900.967590,604.934143 900.694458,616.952271 903.671692,629.415833 
	C905.878723,638.654968 910.550720,645.593750 920.226624,649.664307 
z"/>
<path fill="#FFCD34" opacity="1.000000" stroke="none" 
	d="
M525.025513,718.001648 
	C510.646606,714.367920 497.939270,708.161377 486.219818,699.775269 
	C469.831879,688.048523 458.069946,672.627136 450.198914,654.278992 
	C443.441010,638.525757 440.523560,621.791931 441.129700,604.755066 
	C442.132111,576.581116 449.438354,550.476624 468.081299,528.293945 
	C485.089508,508.056427 506.826050,496.575348 532.309204,490.847443 
	C546.738647,487.604126 561.271484,487.299500 575.734070,488.211823 
	C593.944946,489.360596 610.502075,495.472961 622.585754,510.169250 
	C627.461182,516.098694 630.356506,523.207764 630.874084,530.827454 
	C631.425232,538.941589 630.998047,547.122192 630.998047,556.118408 
	C629.185486,555.636658 627.568604,555.600952 626.431030,554.844482 
	C612.702515,545.714600 597.495789,541.433899 581.187134,539.869690 
	C568.766235,538.678284 556.383423,537.777527 544.356506,541.422119 
	C525.758667,547.057922 512.980835,559.310486 507.587189,578.061829 
	C500.608307,602.324402 502.262451,625.918518 515.987305,647.784424 
	C524.314941,661.051697 536.986938,667.842163 552.129700,669.880554 
	C558.550964,670.744873 565.287415,670.861328 571.680420,669.935303 
	C579.552551,668.795044 581.906677,665.043640 581.998840,656.931152 
	C582.201599,639.078857 582.350159,621.230469 578.062012,603.708496 
	C577.989807,603.413513 578.161499,603.058777 578.348938,602.000000 
	C584.951233,602.000000 591.707642,601.855347 598.455139,602.038391 
	C606.045837,602.244324 614.030396,601.362671 621.125916,603.424316 
	C633.561462,607.037720 638.760864,614.895691 639.763733,627.813660 
	C640.810730,641.299866 640.879028,655.001526 639.799072,668.482727 
	C637.897034,692.224854 625.306213,708.429749 602.411987,715.981445 
	C582.816650,722.445129 562.693420,723.444702 542.345764,720.977234 
	C536.676025,720.289612 531.076721,719.021179 525.025513,718.001648 
z"/>
<path fill="#FFCD34" opacity="1.000000" stroke="none" 
	d="
M1130.635742,583.038940 
	C1112.514771,580.786194 1094.930298,580.814880 1078.264771,588.070923 
	C1070.663086,591.380615 1063.677856,596.093262 1056.341797,600.037292 
	C1054.995239,600.761169 1053.306152,600.847717 1051.380859,601.326538 
	C1050.208008,582.256714 1049.573120,563.998718 1065.353394,550.131165 
	C1074.873657,541.764771 1086.061890,536.766541 1098.436890,535.155029 
	C1109.210571,533.752014 1120.220459,532.586792 1131.011230,533.233215 
	C1151.210571,534.443176 1170.147949,539.906921 1184.759277,555.269653 
	C1194.602783,565.619263 1200.486450,578.112000 1201.810913,592.121338 
	C1203.303833,607.913208 1204.254639,623.873047 1203.744751,639.705200 
	C1203.219604,656.008301 1202.902832,672.530579 1196.159790,688.075134 
	C1190.520752,701.075439 1181.309814,709.960327 1168.280884,714.990662 
	C1158.257324,718.860535 1147.824097,720.817444 1137.045166,721.036011 
	C1129.271973,721.193665 1121.478638,722.240479 1113.740601,721.885315 
	C1095.489258,721.047607 1077.895508,717.384094 1062.759399,706.311401 
	C1045.668335,693.808411 1038.948730,677.127136 1041.712158,655.926331 
	C1043.348145,643.375793 1047.985718,632.811523 1057.171875,624.469177 
	C1066.364746,616.120850 1077.746582,611.731079 1089.704590,609.073608 
	C1104.406494,605.806458 1119.330078,604.538147 1134.412476,604.957092 
	C1142.946167,605.194153 1145.490601,600.795532 1142.246826,592.570496 
	C1140.164185,587.289978 1136.209351,584.557251 1130.635742,583.038940 
M1144.000000,656.413818 
	C1144.000000,655.914246 1144.006470,655.414612 1143.999146,654.915161 
	C1143.811646,642.247498 1145.798340,644.175781 1133.272461,644.002197 
	C1124.504883,643.880676 1115.897705,644.403320 1107.833984,648.544556 
	C1102.672974,651.195068 1100.206055,655.655884 1100.203979,660.871643 
	C1100.201782,666.537720 1101.996826,672.090210 1108.080444,674.496826 
	C1111.689575,675.924622 1115.450195,677.439331 1119.252930,677.822693 
	C1132.140747,679.122131 1144.677368,673.775269 1144.000000,656.413818 
z"/>
<path fill="#FFCD34" opacity="1.000000" stroke="none" 
	d="
M806.007019,700.974304 
	C796.865967,711.803162 784.861694,717.074097 771.635742,718.808350 
	C757.608582,720.647583 743.348083,722.175903 729.258362,721.718750 
	C709.102539,721.064758 689.902344,715.612244 674.452515,701.733398 
	C664.721924,692.992188 659.477905,681.713562 658.897278,668.253479 
	C658.356934,655.728455 659.974426,643.953796 667.135803,633.346741 
	C673.972839,623.220215 683.693298,617.040344 694.935608,612.949829 
	C706.093262,608.890076 717.547241,606.301880 729.474976,605.973938 
	C737.745972,605.746521 746.010437,605.291565 754.280396,605.013916 
	C759.756226,604.830078 762.108704,601.991455 760.806396,596.676331 
	C758.174377,585.934265 755.216492,583.328064 743.792358,582.272705 
	C727.337158,580.752563 710.684387,581.423889 695.146301,588.167603 
	C688.268921,591.152405 681.967773,595.454102 675.354858,599.066101 
	C673.586243,600.032043 671.632751,600.659607 668.818848,601.838501 
	C669.937866,589.555725 667.108643,578.303833 671.257568,567.291199 
	C676.612000,553.078674 687.630432,544.713379 700.836975,539.245422 
	C716.515808,532.753845 733.332581,531.839355 749.991089,533.202393 
	C765.393066,534.462585 780.216125,538.202698 793.302673,547.524109 
	C807.683960,557.767822 815.634644,571.748352 818.925415,588.560974 
	C823.205566,610.428772 820.943848,632.615845 820.691833,654.626648 
	C820.547119,667.263123 818.286621,680.099548 812.046936,691.615234 
	C810.338806,694.767639 808.093872,697.629089 806.007019,700.974304 
M720.905151,652.615356 
	C717.183899,657.579651 716.945557,664.374084 720.083923,669.617859 
	C723.615967,675.519592 729.636169,676.764221 735.560791,677.672546 
	C746.251953,679.311584 758.756348,676.472046 761.419189,661.970398 
	C762.187805,657.784668 761.835510,653.393250 761.999329,649.096252 
	C762.134277,645.554871 760.429260,643.934570 756.892273,643.983582 
	C751.899841,644.052795 746.840942,643.493713 741.927429,644.120605 
	C734.531372,645.064270 726.713501,645.472229 720.905151,652.615356 
z"/>
<path fill="#FFCD34" opacity="1.000000" stroke="none" 
	d="
M1664.072144,589.852295 
	C1664.747314,593.989014 1665.873291,597.688232 1665.914551,601.399475 
	C1666.107056,618.720032 1666.660278,636.076721 1665.802856,653.356873 
	C1665.040283,668.726624 1662.885010,684.077637 1653.880981,697.408997 
	C1646.050659,709.002808 1634.572632,714.804504 1621.450439,717.959717 
	C1605.435425,721.810486 1589.076904,722.899292 1572.765259,721.818115 
	C1556.294922,720.726379 1540.427368,716.620239 1526.439331,707.134399 
	C1511.632935,697.093567 1503.983276,683.367981 1503.906738,665.256470 
	C1503.859009,653.951416 1505.665771,643.267456 1511.870361,633.725708 
	C1518.504395,623.523438 1528.307251,617.197693 1539.486816,613.065674 
	C1550.753540,608.901489 1562.395508,606.267273 1574.498657,605.967957 
	C1582.436157,605.771667 1590.365112,605.237549 1598.302490,605.029236 
	C1604.855347,604.857300 1607.244141,602.001038 1605.811157,595.652893 
	C1603.894409,587.162537 1598.233765,582.436646 1588.448486,582.065308 
	C1572.251831,581.450623 1555.979492,581.270203 1540.770752,588.064941 
	C1533.773560,591.191040 1527.241089,595.351807 1520.463379,598.978882 
	C1518.679443,599.933533 1516.766724,600.647705 1513.974854,601.889648 
	C1514.482056,588.782776 1511.953125,576.555725 1517.127441,565.116516 
	C1523.007690,552.117188 1533.642700,544.040100 1546.676025,539.011414 
	C1562.061523,533.075195 1578.231812,532.025391 1594.391479,533.188965 
	C1606.938965,534.092407 1619.188354,536.843872 1630.699463,542.786804 
	C1647.802612,551.616699 1657.593140,565.780945 1662.955200,583.636169 
	C1663.515747,585.502869 1663.676880,587.489441 1664.072144,589.852295 
M1596.844238,675.626709 
	C1601.720703,672.739319 1605.439575,668.922058 1606.043335,663.011658 
	C1606.543457,658.116333 1607.005493,653.171631 1606.800049,648.277466 
	C1606.738281,646.807251 1604.432617,644.262878 1603.066406,644.202148 
	C1592.878540,643.749634 1582.556030,643.326721 1572.848022,647.188232 
	C1567.560303,649.291565 1563.826904,653.458069 1563.088989,659.291748 
	C1562.294067,665.574829 1564.181519,671.342163 1570.052246,674.352295 
	C1578.358398,678.611145 1587.190674,679.509155 1596.844238,675.626709 
z"/>
<path fill="#FFFFFF" opacity="1.000000" stroke="none" 
	d="
M205.932358,453.000031 
	C228.319855,455.740387 248.631210,463.122253 267.705536,474.171722 
	C281.772614,482.320587 294.135071,492.582611 304.985870,504.580658 
	C321.487640,522.827148 333.371674,543.699646 340.085297,567.510193 
	C343.703888,580.343872 345.615692,593.277466 346.138428,606.621643 
	C347.106750,631.339172 342.477509,654.741211 332.389801,677.267883 
	C324.132599,695.706909 312.859039,711.958862 298.440186,726.021729 
	C276.829895,747.098572 251.365112,761.248718 221.878708,767.997375 
	C207.036926,771.394287 191.941925,773.060059 176.800613,771.878845 
	C149.990738,769.787476 124.925743,762.121521 101.918236,747.648987 
	C88.810570,739.403748 77.052223,729.698914 66.930603,718.226624 
	C48.208523,697.006165 34.970879,672.730896 30.094212,644.558655 
	C28.116993,633.136414 25.969448,621.473267 26.266287,609.980835 
	C27.022259,580.712524 34.559555,553.208557 50.254574,528.022339 
	C58.990582,514.003357 69.654930,501.785583 81.796715,490.912079 
	C95.835327,478.339874 112.026550,468.916565 129.641678,462.134277 
	C151.549484,453.699158 174.354355,450.964203 197.689804,452.029480 
	C200.293808,452.148346 202.879562,452.666809 205.932358,453.000031 
M167.565308,601.956360 
	C148.539169,619.588013 145.128311,642.519714 145.984406,666.834045 
	C130.581146,664.048828 119.258507,652.789917 117.293709,635.356934 
	C115.206863,616.841003 117.836174,598.817627 129.399323,582.952576 
	C141.274307,566.659668 162.510483,558.771179 182.449722,562.889893 
	C190.821121,564.619080 198.959244,567.454468 207.244080,569.632202 
	C216.172485,571.979004 229.840210,566.522400 235.048492,558.829590 
	C241.706238,548.995911 239.876450,538.780640 235.855942,528.880920 
	C231.699493,518.646423 226.284561,508.924988 222.076477,498.708801 
	C219.139481,491.578491 217.221130,484.018555 215.021942,476.598938 
	C214.038406,473.280762 211.874847,473.183563 209.801498,474.791931 
	C204.399200,478.982666 198.713974,483.015839 194.151932,488.030945 
	C188.287796,494.477386 186.976273,502.793365 188.062775,510.776947 
	C166.424255,501.969421 144.961777,493.233582 123.120728,484.343628 
	C119.634941,499.304077 117.745163,514.135437 130.652176,526.529724 
	C127.338310,527.020996 124.320114,527.541382 121.283249,527.906250 
	C106.240219,529.714111 91.978470,536.356079 76.416046,535.060242 
	C73.323555,534.802734 72.667412,536.237793 73.678223,539.471130 
	C77.682938,552.281067 84.250435,562.718811 98.454964,567.610779 
	C87.246437,574.210144 76.736565,580.398193 65.749962,586.866882 
	C72.748550,597.760559 82.892265,604.256714 95.488953,606.336792 
	C96.007805,615.318909 95.964981,623.963257 97.099846,632.450012 
	C100.398399,657.117493 115.164421,672.489563 139.695602,676.728088 
	C144.675354,677.588501 145.592194,679.757507 145.974503,683.477478 
	C147.706802,700.333069 153.712921,715.123596 167.431580,725.728455 
	C172.143173,729.370605 177.838699,731.739868 183.084732,734.690674 
	C183.734863,734.217163 184.384995,733.743652 185.035110,733.270142 
	C173.929733,716.326843 168.811661,698.095093 170.793381,679.062988 
	C178.774002,676.833130 185.795898,675.350037 192.473251,672.920105 
	C217.511765,663.808594 231.028824,638.497803 225.928741,614.436340 
	C223.178818,601.462402 204.467758,589.602661 191.740036,592.013672 
	C183.185303,593.634277 174.977173,595.818665 167.565308,601.956360 
M228.429031,715.929688 
	C231.579193,720.081848 234.260696,724.722961 237.976593,728.284973 
	C245.844711,735.827393 262.656433,735.533081 268.485626,723.881348 
	C272.239319,716.378296 271.909973,708.043274 270.455261,700.147644 
	C268.365448,688.805237 262.416016,679.302734 253.956345,671.375427 
	C251.934494,669.480835 250.383179,667.084045 247.708282,663.806824 
	C253.608444,662.682983 258.018433,661.798401 262.445526,661.009583 
	C270.128357,659.640381 277.840820,658.426514 285.492065,656.902649 
	C286.781982,656.645752 287.826965,655.159058 288.985138,654.240601 
	C288.003021,653.162720 287.216064,651.729309 286.006744,651.065369 
	C278.885925,647.156250 271.666656,643.426453 263.936340,639.349121 
	C275.650330,638.273926 285.780609,634.872986 295.368256,629.863098 
	C299.092041,627.917297 299.007721,624.661011 295.247467,623.090149 
	C278.338806,616.026794 261.381287,609.078552 244.372589,602.260315 
	C242.961990,601.694885 241.037582,602.411194 238.706787,602.578186 
	C245.128326,616.128418 243.614120,629.010864 238.905960,641.696777 
	C236.311569,648.687195 232.764175,655.318359 229.995987,662.251099 
	C223.048737,679.649841 221.304276,697.308594 228.429031,715.929688 
z"/>
<path fill="#FFFFFF" opacity="1.000000" stroke="none" 
	d="
M919.909546,649.417969 
	C910.550720,645.593750 905.878723,638.654968 903.671692,629.415833 
	C900.694458,616.952271 900.967590,604.934143 908.108643,593.933228 
	C912.063049,587.841431 918.279785,584.642639 925.491943,584.083801 
	C930.139587,583.723572 934.992310,583.478210 939.500854,584.406555 
	C947.715332,586.098083 953.216125,591.804016 955.639587,599.558044 
	C959.238464,611.072510 960.080139,623.178406 955.560181,634.450623 
	C949.181335,650.358459 938.793030,652.577637 924.045959,650.520081 
	C922.758179,650.340393 921.499084,649.954468 919.909546,649.417969 
z"/>
<path fill="#FFFFFF" opacity="1.000000" stroke="none" 
	d="
M1144.000000,656.889160 
	C1144.677368,673.775269 1132.140747,679.122131 1119.252930,677.822693 
	C1115.450195,677.439331 1111.689575,675.924622 1108.080444,674.496826 
	C1101.996826,672.090210 1100.201782,666.537720 1100.203979,660.871643 
	C1100.206055,655.655884 1102.672974,651.195068 1107.833984,648.544556 
	C1115.897705,644.403320 1124.504883,643.880676 1133.272461,644.002197 
	C1145.798340,644.175781 1143.811646,642.247498 1143.999146,654.915161 
	C1144.006470,655.414612 1144.000000,655.914246 1144.000000,656.889160 
z"/>
<path fill="#FFFFFF" opacity="1.000000" stroke="none" 
	d="
M721.162415,652.340820 
	C726.713501,645.472229 734.531372,645.064270 741.927429,644.120605 
	C746.840942,643.493713 751.899841,644.052795 756.892273,643.983582 
	C760.429260,643.934570 762.134277,645.554871 761.999329,649.096252 
	C761.835510,653.393250 762.187805,657.784668 761.419189,661.970398 
	C758.756348,676.472046 746.251953,679.311584 735.560791,677.672546 
	C729.636169,676.764221 723.615967,675.519592 720.083923,669.617859 
	C716.945557,664.374084 717.183899,657.579651 721.162415,652.340820 
z"/>
<path fill="#FFFFFF" opacity="1.000000" stroke="none" 
	d="
M1596.490723,675.796753 
	C1587.190674,679.509155 1578.358398,678.611145 1570.052246,674.352295 
	C1564.181519,671.342163 1562.294067,665.574829 1563.088989,659.291748 
	C1563.826904,653.458069 1567.560303,649.291565 1572.848022,647.188232 
	C1582.556030,643.326721 1592.878540,643.749634 1603.066406,644.202148 
	C1604.432617,644.262878 1606.738281,646.807251 1606.800049,648.277466 
	C1607.005493,653.171631 1606.543457,658.116333 1606.043335,663.011658 
	C1605.439575,668.922058 1601.720703,672.739319 1596.490723,675.796753 
z"/>
<path fill="#EF4723" opacity="1.000000" stroke="none" 
	d="
M167.818268,601.696899 
	C174.977173,595.818665 183.185303,593.634277 191.740036,592.013672 
	C204.467758,589.602661 223.178818,601.462402 225.928741,614.436340 
	C231.028824,638.497803 217.511765,663.808594 192.473251,672.920105 
	C185.795898,675.350037 178.774002,676.833130 170.793381,679.062988 
	C168.811661,698.095093 173.929733,716.326843 185.035110,733.270142 
	C184.384995,733.743652 183.734863,734.217163 183.084732,734.690674 
	C177.838699,731.739868 172.143173,729.370605 167.431580,725.728455 
	C153.712921,715.123596 147.706802,700.333069 145.974503,683.477478 
	C145.592194,679.757507 144.675354,677.588501 139.695602,676.728088 
	C115.164421,672.489563 100.398399,657.117493 97.099846,632.450012 
	C95.964981,623.963257 96.007805,615.318909 95.488953,606.336792 
	C82.892265,604.256714 72.748550,597.760559 65.749962,586.866882 
	C76.736565,580.398193 87.246437,574.210144 98.454964,567.610779 
	C84.250435,562.718811 77.682938,552.281067 73.678223,539.471130 
	C72.667412,536.237793 73.323555,534.802734 76.416046,535.060242 
	C91.978470,536.356079 106.240219,529.714111 121.283249,527.906250 
	C124.320114,527.541382 127.338310,527.020996 130.652176,526.529724 
	C117.745163,514.135437 119.634941,499.304077 123.120728,484.343628 
	C144.961777,493.233582 166.424255,501.969421 188.062775,510.776947 
	C186.976273,502.793365 188.287796,494.477386 194.151932,488.030945 
	C198.713974,483.015839 204.399200,478.982666 209.801498,474.791931 
	C211.874847,473.183563 214.038406,473.280762 215.021942,476.598938 
	C217.221130,484.018555 219.139481,491.578491 222.076477,498.708801 
	C226.284561,508.924988 231.699493,518.646423 235.855942,528.880920 
	C239.876450,538.780640 241.706238,548.995911 235.048492,558.829590 
	C229.840210,566.522400 216.172485,571.979004 207.244080,569.632202 
	C198.959244,567.454468 190.821121,564.619080 182.449722,562.889893 
	C162.510483,558.771179 141.274307,566.659668 129.399323,582.952576 
	C117.836174,598.817627 115.206863,616.841003 117.293709,635.356934 
	C119.258507,652.789917 130.581146,664.048828 145.984406,666.834045 
	C145.128311,642.519714 148.539169,619.588013 167.818268,601.696899 
M178.307816,662.948975 
	C179.241684,662.293152 180.237274,661.709412 181.099899,660.970337 
	C190.649307,652.789368 197.588211,643.239014 196.974655,629.889954 
	C196.801178,626.115234 195.378204,622.793091 191.636948,621.327332 
	C188.069565,619.929749 185.219116,621.476013 183.071838,624.438293 
	C182.022781,625.885498 180.839233,627.281311 180.056122,628.867920 
	C174.307755,640.514160 171.743835,652.912231 171.540298,666.802185 
	C173.829819,665.388977 175.702621,664.232971 178.307816,662.948975 
z"/>
<path fill="#EF4723" opacity="1.000000" stroke="none" 
	d="
M228.236496,715.587097 
	C221.304276,697.308594 223.048737,679.649841 229.995987,662.251099 
	C232.764175,655.318359 236.311569,648.687195 238.905960,641.696777 
	C243.614120,629.010864 245.128326,616.128418 238.706787,602.578186 
	C241.037582,602.411194 242.961990,601.694885 244.372589,602.260315 
	C261.381287,609.078552 278.338806,616.026794 295.247467,623.090149 
	C299.007721,624.661011 299.092041,627.917297 295.368256,629.863098 
	C285.780609,634.872986 275.650330,638.273926 263.936340,639.349121 
	C271.666656,643.426453 278.885925,647.156250 286.006744,651.065369 
	C287.216064,651.729309 288.003021,653.162720 288.985107,654.240601 
	C287.826965,655.159058 286.781982,656.645752 285.492065,656.902649 
	C277.840820,658.426514 270.128357,659.640381 262.445526,661.009583 
	C258.018433,661.798401 253.608444,662.682983 247.708282,663.806824 
	C250.383179,667.084045 251.934494,669.480835 253.956345,671.375427 
	C262.416016,679.302734 268.365448,688.805237 270.455261,700.147644 
	C271.909973,708.043274 272.239319,716.378296 268.485626,723.881348 
	C262.656433,735.533081 245.844711,735.827393 237.976593,728.284973 
	C234.260696,724.722961 231.579193,720.081848 228.236496,715.587097 
z"/>
<path fill="#FFFFFF" opacity="1.000000" stroke="none" 
	d="
M177.941620,663.013000 
	C175.702621,664.232971 173.829819,665.388977 171.540298,666.802185 
	C171.743835,652.912231 174.307755,640.514160 180.056122,628.867920 
	C180.839233,627.281311 182.022781,625.885498 183.071838,624.438293 
	C185.219116,621.476013 188.069565,619.929749 191.636948,621.327332 
	C195.378204,622.793091 196.801178,626.115234 196.974655,629.889954 
	C197.588211,643.239014 190.649307,652.789368 181.099899,660.970337 
	C180.237274,661.709412 179.241684,662.293152 177.941620,663.013000 
z"/>
</svg>